<svg xmlns="http://www.w3.org/2000/svg" width="1600" height="1600" viewBox="0 0 1600 1600" role="img" aria-label="Fibaro Wall Plug 2 Z-Wave Plus BE FR">
<defs>
  <radialGradient id="body" cx=".38" cy=".28" r=".78"><stop stop-color="#ffffff"/><stop offset=".55" stop-color="#f1f3f6"/><stop offset="1" stop-color="#cfd5dc"/></radialGradient>
  <linearGradient id="ring" x1="0" y1="0" x2="1" y2="1"><stop stop-color="#54a9ff"/><stop offset=".25" stop-color="#35d68a"/><stop offset=".5" stop-color="#ffd54d"/><stop offset=".75" stop-color="#ff694e"/><stop offset="1" stop-color="#8e63ff"/></linearGradient>
  <filter id="soft"><feDropShadow dx="0" dy="34" stdDeviation="30" flood-color="#0b1730" flood-opacity=".2"/></filter>
  <filter id="blur"><feGaussianBlur stdDeviation="32"/></filter>
</defs>
<ellipse cx="804" cy="1310" rx="350" ry="76" fill="#10203b" opacity=".14" filter="url(#blur)"/>
<g filter="url(#soft)">
  <path d="M516 526c0-180 126-326 282-326h4c156 0 282 146 282 326v430c0 196-127 354-284 354s-284-158-284-354z" fill="url(#body)" stroke="#cbd2db" stroke-width="10"/>
  <ellipse cx="800" cy="536" rx="225" ry="238" fill="#e9edf2" stroke="#c3cbd5" stroke-width="12"/>
  <ellipse cx="800" cy="536" rx="188" ry="198" fill="#fcfdfe" stroke="url(#ring)" stroke-width="24"/>
  <ellipse cx="800" cy="536" rx="142" ry="150" fill="#f5f7f9" stroke="#d6dce3" stroke-width="8"/>
  <circle cx="744" cy="488" r="23" fill="#aeb7c2"/><circle cx="856" cy="488" r="23" fill="#aeb7c2"/>
  <rect x="783" y="523" width="34" height="104" rx="17" fill="#aeb7c2"/>
  <circle cx="800" cy="687" r="20" fill="#d3d9e0"/>
  <path d="M620 865c112 42 248 42 360 0" fill="none" stroke="#d6dce3" stroke-width="9" stroke-linecap="round"/>
  <circle cx="800" cy="1010" r="38" fill="#f4f6f8" stroke="#c8d0d9" stroke-width="8"/>
  <circle cx="800" cy="1010" r="12" fill="#b7c0ca"/>
  <text x="800" y="1154" text-anchor="middle" font-family="Arial,Helvetica,sans-serif" font-size="52" font-weight="700" fill="#4b5563" letter-spacing="4">FIBARO</text>
  <text x="800" y="1212" text-anchor="middle" font-family="Arial,Helvetica,sans-serif" font-size="28" font-weight="600" fill="#8893a1" letter-spacing="3">WALL PLUG 2</text>
</g>
</svg>