<svg xmlns="http://www.w3.org/2000/svg" viewBox="0 0 1200 420" role="img" aria-label="Premium home charger fleet illustration">
<defs><linearGradient id="bg" x1="0" x2="1"><stop stop-color="#f7fbff"/><stop offset="1" stop-color="#edf5ff"/></linearGradient><filter id="s"><feDropShadow dx="0" dy="12" stdDeviation="12" flood-color="#10213a" flood-opacity=".15"/></filter></defs>
<rect width="1200" height="420" rx="34" fill="url(#bg)"/><path d="M0 320h1200v100H0z" fill="#edf1f5"/><path d="M600 92h420l105 76v151H555V132z" fill="#fbfcfe" stroke="#d6e0eb" stroke-width="5"/><path d="M565 132l121-80h318l109 74" fill="none" stroke="#c8d6e3" stroke-width="12" stroke-linecap="round"/><rect x="677" y="153" width="155" height="116" rx="8" fill="#69849f"/><rect x="850" y="153" width="123" height="116" rx="8" fill="#8297ac"/>
<g transform="translate(168 160)" filter="url(#s)"><rect width="112" height="196" rx="30" fill="#fff" stroke="#c9d6e2" stroke-width="5"/><rect x="20" y="25" width="72" height="78" rx="18" fill="#162231"/><circle cx="56" cy="63" r="20" fill="#1467f5"/><circle cx="56" cy="137" r="31" fill="#eef2f6" stroke="#aab9c8" stroke-width="5"/></g>
<g transform="translate(344 178)" filter="url(#s)"><rect width="96" height="178" rx="27" fill="#1a2636" stroke="#46566a" stroke-width="5"/><rect x="17" y="22" width="62" height="67" rx="17" fill="#080d13"/><circle cx="48" cy="56" r="18" fill="#2c86ff"/><circle cx="48" cy="127" r="27" fill="#0a0f16" stroke="#667486" stroke-width="5"/></g>
<g transform="translate(495 195)" filter="url(#s)"><rect width="82" height="160" rx="24" fill="#f5f7f9" stroke="#c8d4df" stroke-width="5"/><circle cx="41" cy="51" r="18" fill="#18a957"/><circle cx="41" cy="109" r="25" fill="#202a35"/></g>
<path d="M280 260c54 0 44 64 90 64m70-71c49 0 41 59 88 59" fill="none" stroke="#1467f5" stroke-width="5" stroke-linecap="round" opacity=".75"/>
</svg>