<svg xmlns="http://www.w3.org/2000/svg" viewBox="0 0 1200 420" role="img" aria-label="Premium light architectural vehicle management">
<defs><linearGradient id="sky" x1="0" x2="1"><stop stop-color="#f8fbff"/><stop offset=".58" stop-color="#edf5ff"/><stop offset="1" stop-color="#dbe9f8"/></linearGradient><linearGradient id="glass" x1="0" x2="1"><stop stop-color="#d9e8f5"/><stop offset="1" stop-color="#8ba6bf"/></linearGradient><linearGradient id="car" x1="0" x2="1"><stop stop-color="#f5f7fa"/><stop offset=".45" stop-color="#c5d0da"/><stop offset="1" stop-color="#7f8f9f"/></linearGradient><filter id="s"><feDropShadow dx="0" dy="12" stdDeviation="12" flood-color="#36516f" flood-opacity=".16"/></filter></defs>
<rect width="1200" height="420" fill="url(#sky)"/><path d="M0 314L1200 254V420H0Z" fill="#e8eef5"/><path d="M680 92l292-24 151 83-58 149-355 23-111-72z" fill="#f8fafc" stroke="#b8c7d6" stroke-width="5"/><path d="M785 120l132-11 67 40-23 75-154 9-47-35z" fill="url(#glass)"/><g transform="translate(165 202) skewX(-8)" filter="url(#s)"><path d="M34 83l92-58h268l101 58 80 19 20 55H5l13-60z" fill="url(#car)" stroke="#7f8e9c" stroke-width="5"/><path d="M174 42h195l72 45H108z" fill="url(#glass)"/><circle cx="136" cy="155" r="41" fill="#243447"/><circle cx="493" cy="155" r="41" fill="#243447"/><path d="M60 99h56l-19 17H51zm455 0h52l10 18h-71z" fill="#1467f5"/></g><g transform="translate(690 260) scale(.62) skewX(-8)" opacity=".72"><path d="M34 83l92-58h268l101 58 80 19 20 55H5l13-60z" fill="#b7c4d0"/><circle cx="136" cy="155" r="41" fill="#243447"/><circle cx="493" cy="155" r="41" fill="#243447"/></g></svg>